<!--?xml version="1.0" encoding="UTF-8"?-->
<svg xmlns="http://www.w3.org/2000/svg" xmlns:xlink="http://www.w3.org/1999/xlink" viewBox="0 0 64 64" version="1.1">
<g id="surface1">
<path style=" fill:#BBDEF9;" d="M 57 51 C 57 45.476563 45.808594 41 32 41 C 18.191406 41 7 45.476563 7 51 C 7 56.523438 18.191406 61 32 61 C 45.808594 61 57 56.523438 57 51 Z "></path>
<path style=" fill:#DEF0FF;" d="M 42.378906 41.902344 L 19.265625 59.605469 C 22.996094 60.488281 27.347656 61 32 61 C 34.023438 61 35.992188 60.902344 37.875 60.71875 L 55.945313 48.121094 C 53.863281 45.351563 48.867188 43.089844 42.378906 41.902344 Z "></path>
<path style=" fill:#DEF0FF;" d="M 17.039063 59.011719 L 39.886719 41.511719 C 38.164063 41.28125 36.359375 41.125 34.488281 41.050781 L 13.011719 57.5 C 14.214844 58.0625 15.558594 58.570313 17.039063 59.011719 Z "></path>
<path style=" fill:#DEF0FF;" d="M 11.039063 56.449219 L 31.429688 41.007813 C 30.207031 41.015625 29.007813 41.0625 27.835938 41.140625 L 8.96875 54.898438 C 9.546875 55.441406 10.242188 55.957031 11.039063 56.449219 Z "></path>
<path style=" fill:#ED7899;" d="M 31.953125 3 C 23.742188 3 17.066406 9.675781 17.066406 17.886719 C 17.066406 23.222656 20.28125 28.035156 23.683594 33.136719 C 27.007813 38.117188 30.449219 43.269531 31.210938 49.347656 C 31.257813 49.71875 31.574219 50 31.949219 50 C 32.324219 50 32.644531 49.71875 32.6875 49.347656 C 33.453125 43.269531 36.890625 38.117188 40.21875 33.136719 C 43.621094 28.039063 46.835938 23.222656 46.835938 17.886719 C 46.835938 9.675781 40.160156 3 31.953125 3 Z "></path>
<path style=" fill:#F9DD8F;" d="M 39 18 C 39 21.867188 35.867188 25 32 25 C 28.132813 25 25 21.867188 25 18 C 25 14.132813 28.132813 11 32 11 C 35.867188 11 39 14.132813 39 18 Z "></path>
<path style=" fill:#8D6C9F;" d="M 35.9375 55.867188 C 34.652344 55.957031 33.328125 56 32 56 C 27.800781 56 23.691406 55.546875 20.429688 54.730469 C 19.894531 54.59375 19.347656 54.917969 19.214844 55.453125 C 19.078125 55.992188 19.40625 56.535156 19.941406 56.667969 C 23.410156 57.539063 27.578125 58 32 58 C 33.371094 58 34.742188 57.953125 36.070313 57.863281 C 36.621094 57.828125 37.039063 57.351563 37.003906 56.800781 C 36.964844 56.25 36.5 55.828125 35.9375 55.867188 Z "></path>
<path style=" fill:#8D6C9F;" d="M 43.574219 54.730469 C 42.601563 54.972656 41.554688 55.1875 40.453125 55.363281 C 39.910156 55.449219 39.535156 55.964844 39.625 56.507813 C 39.703125 57 40.128906 57.347656 40.609375 57.347656 C 40.664063 57.347656 40.71875 57.34375 40.769531 57.335938 C 41.925781 57.148438 43.035156 56.925781 44.0625 56.667969 C 44.597656 56.535156 44.921875 55.992188 44.789063 55.453125 C 44.652344 54.921875 44.109375 54.59375 43.574219 54.730469 Z "></path>
<path style=" fill:#8D6C9F;" d="M 37.355469 40.238281 C 38.480469 38.34375 39.707031 36.5 40.921875 34.679688 C 44.5625 29.226563 48 24.074219 48 18.332031 C 48 9.480469 40.800781 2.28125 31.953125 2.28125 C 23.101563 2.28125 15.902344 9.480469 15.902344 18.332031 C 15.902344 24.074219 19.339844 29.222656 22.980469 34.675781 C 24.199219 36.5 25.425781 38.347656 26.550781 40.246094 C 14.679688 41.28125 6 45.625 6 51 C 6 57.167969 17.421875 62 32 62 C 46.578125 62 58 57.167969 58 51 C 58 45.613281 49.277344 41.257813 37.355469 40.238281 Z M 17.902344 18.332031 C 17.902344 10.585938 24.207031 4.28125 31.953125 4.28125 C 39.699219 4.28125 46 10.585938 46 18.332031 C 46 23.46875 42.726563 28.375 39.257813 33.566406 C 36.425781 37.8125 33.519531 42.164063 31.949219 47.117188 C 30.382813 42.164063 27.476563 37.808594 24.644531 33.566406 C 21.179688 28.371094 17.902344 23.46875 17.902344 18.332031 Z M 32 60 C 17.644531 60 8 55.347656 8 51 C 8 47.113281 15.738281 43 27.636719 42.171875 C 29.257813 45.199219 30.523438 48.378906 30.957031 51.84375 C 31.019531 52.34375 31.445313 52.71875 31.949219 52.71875 C 32.453125 52.71875 32.878906 52.34375 32.941406 51.84375 C 33.378906 48.378906 34.644531 45.191406 36.269531 42.164063 C 48.222656 42.976563 56 47.101563 56 51 C 56 55.347656 46.355469 60 32 60 Z "></path>
<path style=" fill:#8D6C9F;" d="M 35.457031 25.179688 C 38.777344 23.574219 40.566406 19.9375 39.808594 16.335938 C 39.695313 15.796875 39.167969 15.449219 38.625 15.5625 C 38.085938 15.675781 37.738281 16.207031 37.851563 16.746094 C 38.417969 19.449219 37.078125 22.175781 34.589844 23.378906 C 31.609375 24.816406 28.015625 23.5625 26.574219 20.585938 C 25.136719 17.605469 26.386719 14.011719 29.367188 12.570313 C 29.875 12.324219 30.410156 12.152344 30.960938 12.058594 C 31.503906 11.964844 31.867188 11.449219 31.773438 10.902344 C 31.683594 10.359375 31.167969 9.992188 30.621094 10.089844 C 29.886719 10.214844 29.171875 10.445313 28.496094 10.773438 C 24.523438 12.691406 22.855469 17.484375 24.773438 21.457031 C 26.152344 24.308594 29.015625 25.976563 31.988281 25.976563 C 33.15625 25.972656 34.339844 25.71875 35.457031 25.179688 Z "></path>
<path style=" fill:#8D6C9F;" d="M 34.226563 12.410156 C 34.953125 12.707031 35.609375 13.132813 36.167969 13.679688 C 36.363281 13.867188 36.613281 13.964844 36.867188 13.964844 C 37.128906 13.964844 37.386719 13.863281 37.582031 13.660156 C 37.96875 13.265625 37.960938 12.632813 37.566406 12.246094 C 36.816406 11.519531 35.945313 10.949219 34.976563 10.558594 C 34.460938 10.351563 33.878906 10.597656 33.671875 11.109375 C 33.464844 11.621094 33.714844 12.203125 34.226563 12.410156 Z "></path>
<path style=" fill:#8D6C9F;" d="M 34 18 C 34 19.105469 33.105469 20 32 20 C 30.894531 20 30 19.105469 30 18 C 30 16.894531 30.894531 16 32 16 C 33.105469 16 34 16.894531 34 18 Z "></path>
<path style=" fill:#FFFFFF;" d="M 42.292969 44.996094 L 43.53125 47.261719 L 45.792969 48.5 L 43.53125 49.738281 L 42.292969 52.003906 L 41.054688 49.738281 L 38.789063 48.5 L 41.054688 47.261719 Z "></path>
<path style=" fill:#FFFFFF;" d="M 18.375 45.164063 L 19.230469 46.726563 L 20.792969 47.582031 L 19.230469 48.4375 L 18.375 50.003906 L 17.519531 48.4375 L 15.957031 47.582031 L 17.519531 46.726563 Z "></path>
<path style=" fill:#FFFFFF;" d="M 27.605469 51.707031 L 28.1875 52.773438 L 29.253906 53.355469 L 28.1875 53.9375 L 27.605469 55.003906 L 27.023438 53.9375 L 25.957031 53.355469 L 27.023438 52.773438 Z "></path>
</g>
</svg>
