<!--?xml version="1.0" encoding="UTF-8"?-->
<svg xmlns="http://www.w3.org/2000/svg" xmlns:xlink="http://www.w3.org/1999/xlink" viewBox="0 0 48 48" version="1.1">
<g id="surface1">
<path style=" fill:#FFCC80;" d="M 35 23 L 22.984375 23 L 22.984375 8.988281 C 22.984375 7.882813 21.890625 6 19.890625 6 C 17.890625 6 17 7.988281 17 8.988281 C 17 9.988281 17 26 17 26 L 17 33.125 L 12.625 29.066406 C 11.234375 27.675781 9.175781 27.550781 7.785156 29.25 C 6.550781 30.644531 6.859375 32.804688 8.097656 34.039063 L 13.886719 39.636719 C 17 43 21.65625 44 24.742188 44 L 31.621094 44 C 36.722656 44 40.984375 39.941406 40.984375 34.847656 C 40.984375 34.847656 41 30.015625 41 24 Z "></path>
<path style=" fill:#FFCC80;" d="M 22.984375 27.085938 C 22.984375 28.691406 24.335938 30 25.984375 30 C 27.636719 30 28.984375 28.6875 28.984375 27.085938 L 28.984375 6.910156 C 28.984375 5.308594 27.636719 4 25.984375 4 C 24.335938 4 22.984375 5.308594 22.984375 6.910156 Z "></path>
<path style=" fill:#FFCC80;" d="M 34.984375 31.085938 C 34.984375 32.691406 36.335938 34 37.984375 34 C 39.636719 34 40.984375 32.6875 40.984375 31.085938 L 41 12.910156 C 41 11.308594 39.648438 10 38 10 C 36.351563 10 35 11.308594 35 12.910156 Z "></path>
<path style=" fill:#FFCC80;" d="M 29 29.085938 C 29 30.6875 30.351563 32 32 32 C 33.648438 32 35 30.6875 35 29.085938 L 35 8.910156 C 35 7.308594 33.648438 6 32 6 C 30.351563 6 29 7.308594 29 8.910156 Z "></path>
<path style=" fill:#F2A25A;" d="M 23.007813 9 C 23.007813 9.007813 23 9.027344 23 9.027344 L 23.007813 23.007813 C 23.007813 23.558594 23.453125 24.007813 24.007813 24.007813 C 24.5625 24.007813 25.007813 23.558594 25.007813 23.007813 Z "></path>
<path style=" fill:#F2A25A;" d="M 29.050781 8.414063 C 29.03125 8.53125 29.023438 8.652344 29.015625 8.773438 L 29.015625 8.777344 L 29 24 C 29 24.550781 29.445313 25 30 25 C 30.554688 25 31 24.550781 31 24 Z "></path>
<path style=" fill:#F2A25A;" d="M 35.035156 12.636719 C 35.015625 12.757813 35.007813 12.875 35 12.996094 L 35 25.585938 C 35 26.140625 35.445313 26.585938 36 26.585938 C 36.554688 26.585938 37 26.140625 37 25.585938 Z "></path>
<path style=" fill:#FFEBEE;" d="M 18 9.101563 C 18.011719 7.929688 18.914063 6.988281 20.023438 7 C 21.125 7.011719 22.011719 7.976563 22 9.144531 C 21.988281 10.316406 17.988281 10.269531 18 9.101563 "></path>
<path style=" fill:#FFEBEE;" d="M 8.898438 33.1875 C 7.972656 32.355469 7.894531 30.933594 8.722656 30.003906 C 9.554688 29.078125 10.980469 29.003906 11.902344 29.835938 C 12.828125 30.667969 9.824219 34.019531 8.898438 33.1875 "></path>
<path style=" fill:#FFEBEE;" d="M 24 7.101563 C 24.011719 5.929688 24.914063 4.988281 26.023438 5 C 27.125 5.011719 28.011719 5.976563 28 7.144531 C 27.988281 8.316406 23.988281 8.269531 24 7.101563 "></path>
<path style=" fill:#FFEBEE;" d="M 30.015625 9.101563 C 30.027344 7.929688 30.929688 6.988281 32.039063 7 C 33.140625 7.011719 34.027344 7.976563 34.015625 9.144531 C 34.003906 10.316406 30.003906 10.269531 30.015625 9.101563 "></path>
<path style=" fill:#FFEBEE;" d="M 36 13.101563 C 36.015625 11.929688 36.914063 10.988281 38.023438 11 C 39.125 11.011719 40.011719 11.976563 40 13.144531 C 39.988281 14.316406 35.988281 14.269531 36 13.101563 "></path>
</g>
</svg>
