<!--?xml version="1.0" encoding="UTF-8"?-->
<svg xmlns="http://www.w3.org/2000/svg" xmlns:xlink="http://www.w3.org/1999/xlink" viewBox="0 0 48 48" version="1.1">
<g id="surface1">
<path style=" fill:#FFCC80;" d="M 33 18 L 21 18 L 21 14 C 21 12.894531 19.902344 11.011719 17.902344 11.011719 C 15.902344 11.011719 15 13 15 14 C 15 15 15 21 15 21 C 15 21 11.390625 23.300781 10 25 C 8.765625 26.390625 8.609375 28.140625 10 30 L 12.691406 33.847656 C 15.625 36.78125 18.585938 39 22.757813 39 L 29.636719 39 C 34.734375 39 39 34.945313 39 29.847656 C 39 29.847656 39 26.015625 39 20 Z "></path>
<path style=" fill:#FFCC80;" d="M 21 19.085938 C 21 20.6875 22.351563 22 24 22 C 25.652344 22 27 20.6875 27 19.085938 L 27 11.910156 C 27 10.308594 25.652344 9 24 9 C 22.351563 9 21 10.308594 21 11.910156 Z "></path>
<path style=" fill:#FFCC80;" d="M 27 21.085938 C 27 22.6875 28.351563 24 30 24 C 31.652344 24 33 22.6875 33 21.085938 L 33 13.910156 C 33 12.308594 31.652344 11 30 11 C 28.351563 11 27 12.308594 27 13.910156 Z "></path>
<path style=" fill:#FFCC80;" d="M 33 24.085938 C 33 25.6875 34.351563 27 36 27 C 37.652344 27 39 25.6875 39 24.085938 L 39 16.910156 C 39 15.308594 37.652344 14 36 14 C 34.351563 14 33 15.308594 33 16.910156 Z "></path>
<path style=" fill:#F2A25A;" d="M 15 30 L 15 21 C 15 21 13.488281 21.964844 12.046875 23.105469 Z "></path>
<path style=" fill:#F2A25A;" d="M 21 12 L 21 18 C 21 18.550781 21.445313 19 22 19 C 22.554688 19 23 18.550781 23 18 Z "></path>
<path style=" fill:#F2A25A;" d="M 27 14 L 27 19 C 27 19.550781 27.445313 20 28 20 C 28.554688 20 29 19.550781 29 19 Z "></path>
<path style=" fill:#F2A25A;" d="M 33 16 L 33 20 C 33 20.550781 33.445313 21 34 21 C 34.554688 21 35 20.550781 35 20 Z "></path>
</g>
</svg>
